# xmcd
#
# Track frame offsets:
# 150
# 16607
# 49412
#
# Disc length: 1095 seconds
#
# Revision: 1
# Processed by: cddbd v1.5.2PL0 Copyright (c) Steve Scherf et al.
# Submitted via: CedeCatalogueitor 2.6.0.6 http://personales.ya.com/cdcatalogueitor
#
DISCID=1a044503
DTITLE=Freestylers - In Love With You [CD Single)
DYEAR=1900
DGENRE=
TTITLE0=In Love With You
TTITLE1=In Love With You (Dj Bomba and Señor Rmx)
TTITLE2=In Love With You (Rogue Element Rmx)
EXTD=
EXTT0=
EXTT1=
EXTT2=
PLAYORDER=
